<?xml version="1.0" encoding="UTF-8" standalone="no"?>
<svg
   version="1.1"
   width="1124"
   height="255"
   id="svg378"
   sodipodi:docname="ChatGPT Image 14 бер. 2026 р., 18_46_16 (1).svg"
   inkscape:version="1.4 (e7c3feb1, 2024-10-09)"
   xmlns:inkscape="http://www.inkscape.org/namespaces/inkscape"
   xmlns:sodipodi="http://sodipodi.sourceforge.net/DTD/sodipodi-0.dtd"
   xmlns="http://www.w3.org/2000/svg"
   xmlns:svg="http://www.w3.org/2000/svg">
  <defs
     id="defs378" />
  <sodipodi:namedview
     id="namedview378"
     pagecolor="#ffffff"
     bordercolor="#000000"
     borderopacity="0.25"
     inkscape:showpageshadow="2"
     inkscape:pageopacity="0.0"
     inkscape:pagecheckerboard="0"
     inkscape:deskcolor="#d1d1d1"
     inkscape:zoom="2.5947591"
     inkscape:cx="144.90748"
     inkscape:cy="175.73886"
     inkscape:window-width="1440"
     inkscape:window-height="777"
     inkscape:window-x="0"
     inkscape:window-y="25"
     inkscape:window-maximized="1"
     inkscape:current-layer="svg378" />
  <path
     d="M0 0 C7.99396914 7.81632538 11.9887285 17.12434608 12.8125 28.2109375 C12.8125 38.16818315 8.90931365 47.95962701 2.8125 55.75 C0.23185253 58.19168953 -2.44128625 60.49703823 -5.1875 62.75 C1.76033924 65.87283677 1.76033924 65.87283677 8.8125 68.75 C8.57273438 67.93595703 8.57273438 67.93595703 8.328125 67.10546875 C5.97207767 56.34261616 8.55733719 47.28271873 14 38.0625 C19.96374262 29.12936252 27.64506957 25.26177596 37.73046875 22.16015625 C48.60837971 20.0172282 59.80112225 21.85440602 69.0625 27.875 C77.65390466 34.37992067 83.10316795 42.69351586 85.34375 53.25390625 C86.71990046 63.24663518 84.21273278 72.29437236 78.8125 80.75 C75.0865072 85.30302391 70.81430765 88.70011729 65.8125 91.75 C66.71871094 91.84796875 67.62492188 91.9459375 68.55859375 92.046875 C80.23162565 93.47975511 89.29207955 96.32567451 97.8125 104.75 C104.81721132 114.05968043 106.85089289 123.21979322 105.8125 134.75 C103.86564218 144.56268604 98.22775331 151.76285465 90.25 157.63671875 C80.06308023 164.05013013 69.57211689 165.01014687 57.8125 163.75 C48.67249521 161.57139575 40.88398151 156.39931852 35.37109375 148.75 C32.8125 144.47081882 32.8125 144.47081882 32.8125 141.75 C31.8225 141.75 30.8325 141.75 29.8125 141.75 C29.585625 142.575 29.35875 143.4 29.125 144.25 C27.53823768 148.48136618 25.30501763 152.00171013 22.8125 155.75 C23.93527344 155.92015625 25.05804688 156.0903125 26.21484375 156.265625 C38.26622383 158.17704684 48.3118279 160.30083186 56.8125 169.75 C63.91918668 179.83487688 66.93236517 189.57149721 65.4140625 202.015625 C63.01481308 213.02394589 57.02779385 221.30210384 47.8125 227.75 C41.76448193 230.92363448 35.68539639 233.35348675 28.8125 233.75 C27.595625 233.8325 26.37875 233.915 25.125 234 C14.3968512 233.79249229 4.46765308 229.87256161 -3.46875 222.68359375 C-5.1875 220.75 -5.1875 220.75 -5.1875 218.75 C-5.8475 218.75 -6.5075 218.75 -7.1875 218.75 C-8.17419759 216.85807525 -9.1515602 214.96128022 -10.125 213.0625 C-10.67027344 212.00675781 -11.21554688 210.95101562 -11.77734375 209.86328125 C-16.10484368 200.3092163 -14.63316602 190.75615473 -11.16015625 181.18359375 C-10.1875 178.75 -10.1875 178.75 -9.1875 176.75 C-10.05375 177.059375 -10.92 177.36875 -11.8125 177.6875 C-21.88549554 180.52496353 -33.94239392 180.64223595 -44.1875 178.75 C-46.5859375 177.203125 -46.5859375 177.203125 -48.1875 175.75 C-47.83816406 176.42546875 -47.48882812 177.1009375 -47.12890625 177.796875 C-46.67386719 178.68890625 -46.21882813 179.5809375 -45.75 180.5 C-45.29753906 181.38171875 -44.84507813 182.2634375 -44.37890625 183.171875 C-41.07387886 190.32373754 -41.05580477 199.01628053 -42.87109375 206.609375 C-46.9048876 217.38847557 -54.61540278 226.10882278 -65.09765625 230.9375 C-74.83090978 234.72164343 -86.28953652 235.29208058 -96.1875 231.75 C-101.06106828 229.39860183 -105.68651037 226.75065975 -110.1875 223.75 C-110.1875 223.09 -110.1875 222.43 -110.1875 221.75 C-111.07888672 221.40388672 -111.07888672 221.40388672 -111.98828125 221.05078125 C-114.76306584 219.40956763 -115.75801 217.71007669 -117.375 214.9375 C-117.88417969 214.08542969 -118.39335938 213.23335937 -118.91796875 212.35546875 C-120.1875 209.75 -120.1875 209.75 -120.73828125 206.98828125 C-120.88652344 206.24964844 -121.03476563 205.51101562 -121.1875 204.75 C-121.8475 204.42 -122.5075 204.09 -123.1875 203.75 C-123.83337008 190.77877591 -122.9734175 178.96878652 -114.09765625 168.6796875 C-103.59232753 158.06694233 -92.54471508 156.10625844 -78.1875 155.75 C-78.66960937 155.07453125 -79.15171875 154.3990625 -79.6484375 153.703125 C-80.28007813 152.81109375 -80.91171875 151.9190625 -81.5625 151 C-82.18898438 150.11828125 -82.81546875 149.2365625 -83.4609375 148.328125 C-84.90230941 146.17585021 -86.10248093 144.09539477 -87.1875 141.75 C-90.15615509 144.29456151 -91.5494751 147.23994665 -93.1875 150.75 C-93.8475 150.75 -94.5075 150.75 -95.1875 150.75 C-95.1875 151.41 -95.1875 152.07 -95.1875 152.75 C-104.10128028 161.25088038 -114.61763604 164.15933462 -126.64453125 164.0234375 C-136.65062182 163.25119236 -145.75134305 159.56507838 -153.1875 152.75 C-153.1875 152.09 -153.1875 151.43 -153.1875 150.75 C-153.8475 150.75 -154.5075 150.75 -155.1875 150.75 C-161.30541885 139.80803026 -164.94893312 130.8123393 -161.91015625 118.09375 C-158.75241056 107.85241263 -152.8553137 101.1572299 -143.5546875 95.96875 C-136.9312954 92.55868674 -130.53132891 92.2015623 -123.1875 91.75 C-124.27417969 91.05777344 -124.27417969 91.05777344 -125.3828125 90.3515625 C-134.70900432 84.05949175 -139.87183601 77.17159451 -142.71484375 66.2421875 C-144.51946821 56.7268949 -142.71904304 47.81570505 -137.83203125 39.421875 C-131.36864523 30.34194397 -122.67752188 24.146237 -111.65625 22.0703125 C-100.11453594 20.57281163 -88.79810292 21.94948373 -79.25 29.0625 C-77.86646953 30.25851902 -76.50978626 31.48660098 -75.1875 32.75 C-74.61257812 33.2965625 -74.03765625 33.843125 -73.4453125 34.40625 C-69.20771009 38.875761 -67.08410602 43.94346773 -65.1875 49.75 C-64.98898438 50.34941406 -64.79046875 50.94882813 -64.5859375 51.56640625 C-63.98375625 54.86659563 -64.0839455 58.15879513 -64.125 61.5 C-64.12951172 62.19738281 -64.13402344 62.89476563 -64.13867188 63.61328125 C-64.1503998 65.32555803 -64.16833347 67.03779033 -64.1875 68.75 C-60.2275 66.44 -56.2675 64.13 -52.1875 61.75 C-53.981875 60.326875 -53.981875 60.326875 -55.8125 58.875 C-64.10544475 51.64072905 -68.4437607 41.98071495 -69.421875 31.15625 C-69.92907033 20.44879308 -66.93305664 11.48419225 -59.9375 3.3125 C-42.60108382 -14.28096354 -19.60001397 -13.83530398 0 0 Z M-45.1875 17.75 C-48.94620906 23.01219269 -48.84867332 28.52007108 -48.1875 34.75 C-46.16752392 41.0475725 -41.41763443 44.82937953 -35.875 48.125 C-29.13585779 49.69224238 -23.01136614 49.49818784 -16.94140625 46.015625 C-12.23370224 42.61852901 -9.46796657 38.45389654 -8.1875 32.75 C-7.67299397 27.19333482 -8.48654196 22.6096783 -11.1875 17.75 C-16.04034476 12.55052347 -21.76320285 10.39745812 -28.75 9.375 C-35.4064547 10.39906995 -40.44579886 13.00829886 -45.1875 17.75 Z M-118.77734375 48.1171875 C-122.31600924 52.21458965 -122.62414613 55.88774543 -122.5 61.1484375 C-121.81290868 66.86847274 -119.62564545 70.58150682 -115.1875 74.1875 C-108.99273484 77.41394019 -101.56142395 78.08466336 -94.83203125 76.03125 C-90.56776103 74.04712427 -87.76571417 71.7720141 -85.1875 67.75 C-83.44473805 62.52171414 -83.04794052 57.32485239 -85.31640625 52.19921875 C-88.22431687 47.56022817 -90.82828944 44.46494738 -96.1875 42.75 C-105.00687505 40.87046106 -111.98756236 41.98551731 -118.77734375 48.1171875 Z M32.9375 46.5 C29.53703728 50.10048994 27.87454852 53.30296142 27.75 58.21484375 C28.11171943 63.22616501 28.69970485 67.6939336 31.8125 71.75 C37.24383228 75.61341938 42.73508183 77.61287273 49.421875 77.234375 C54.95308358 76.11367261 58.57651347 73.14444634 62.25 69 C64.62898286 64.05171565 65.61639066 59.70075159 64.1484375 54.3125 C62.25442501 49.63136344 60.28328328 46.34929261 55.8125 43.75 C47.26948679 40.75245151 40.56341681 41.85813759 32.9375 46.5 Z M-62.1875 94.75 C-69.16037215 105.15191833 -71.39108078 116.24689905 -69.0703125 128.51171875 C-66.17597775 139.12854844 -60.72700247 147.90867271 -51.1484375 153.53515625 C-39.61981763 159.4677672 -27.57668744 160.53534377 -14.77734375 158.1015625 C-2.92358917 154.1105142 5.00203205 146.66090373 10.87109375 135.7890625 C15.23117228 125.90065473 14.60377576 114.18950904 10.87890625 104.26171875 C5.68284561 92.7009333 -2.41033513 85.2651061 -14.1875 80.75 C-31.83477047 74.86757651 -50.0565043 81.17870213 -62.1875 94.75 Z M27.8125 92.75 C28.11285156 93.63042969 28.41320312 94.51085937 28.72265625 95.41796875 C29.93904505 99.1368922 30.94364405 102.89134496 31.93359375 106.67578125 C32.22363281 107.36027344 32.51367188 108.04476562 32.8125 108.75 C33.8025 109.08 34.7925 109.41 35.8125 109.75 C36.81843243 108.6303014 37.8170849 107.5040588 38.8125 106.375 C39.369375 105.74851562 39.92625 105.12203125 40.5 104.4765625 C42.01422487 102.84610167 42.01422487 102.84610167 41.8125 100.75 C42.51375 100.646875 43.215 100.54375 43.9375 100.4375 C47.20387647 99.65640997 49.8596852 98.32941257 52.8125 96.75 C52.8125 96.42 52.8125 96.09 52.8125 95.75 C52.09707031 95.78480469 51.38164062 95.81960937 50.64453125 95.85546875 C42.62228132 96.07340827 35.54190254 94.84441875 27.8125 92.75 Z M-89.5 94.1875 C-94.54326816 96.8671312 -100.60779282 96.50992358 -106.1875 96.75 C-103.61790383 98.81085062 -101.04400421 100.86088311 -98.4375 102.875 C-96.1875 104.75 -96.1875 104.75 -95.1875 106.75 C-94.5275 106.75 -93.8675 106.75 -93.1875 106.75 C-92.8575 107.74 -92.5275 108.73 -92.1875 109.75 C-89.97114613 106.42546919 -89.2738195 103.58406881 -88.1875 99.75 C-87.25373251 97.38108247 -86.23093472 95.07401369 -85.1875 92.75 C-87.35821783 92.57402196 -87.35821783 92.57402196 -89.5 94.1875 Z M33.8125 109.75 C34.8125 111.75 34.8125 111.75 34.8125 111.75 Z M-137.1875 115.75 C-137.1875 116.41 -137.1875 117.07 -137.1875 117.75 C-138.1775 118.08 -139.1675 118.41 -140.1875 118.75 C-142.74427576 123.05614864 -142.97920155 127.89476906 -142.1875 132.75 C-140.06814313 137.80317732 -137.30730948 141.51828818 -132.1875 143.75 C-126.99244831 145.72053685 -121.63124541 145.23940522 -116.5 143.5 C-112.12170374 141.18693782 -109.0135707 139.52015149 -106.875 134.9375 C-105.82848971 130.08549774 -105.61583022 126.33797161 -107.3125 121.625 C-110.32718711 117.00247977 -113.51526957 114.37708641 -118.6875 112.4375 C-126.15411546 110.97084339 -130.51703502 112.42959077 -137.1875 115.75 Z M53.22265625 118.11328125 C50.31689311 121.4858983 49.93132578 124.83334395 49.375 129.125 C50.03729435 134.61258175 52.19879717 138.68106006 56.57421875 142.14453125 C61.77685098 145.13103211 66.92798164 145.54252773 72.8125 144.75 C78.18529622 142.99350893 81.94317949 139.57567541 84.8125 134.75 C86.27809194 130.14152757 86.06272144 126.63313448 84.75 122 C81.91569053 117.24567444 78.78600356 114.57887149 73.6875 112.4375 C65.76700871 110.54346947 58.99680974 112.68110496 53.22265625 118.11328125 Z M-88.1875 137.75 C-87.1875 140.75 -87.1875 140.75 -87.1875 140.75 Z M-97.625 182.125 C-101.20368999 186.85362915 -102.77616911 190.74557505 -102.1875 196.75 C-100.96671983 202.67259688 -98.26721328 206.56122937 -93.55859375 210.328125 C-88.61574513 213.29220555 -83.38662614 214.24641613 -77.6953125 213.36328125 C-72.56604878 211.86940478 -68.90644509 209.55965107 -65.1875 205.75 C-62.63410113 200.49352026 -62.39962881 195.49020438 -63.1875 189.75 C-65.24731678 184.62599297 -68.51507192 180.71300317 -73.1875 177.75 C-81.63744206 174.15427997 -91.31095724 175.03906937 -97.625 182.125 Z M12.9375 180.5 C8.21935606 185.07583334 6.62878437 189.07038346 6.25 195.625 C6.39052722 201.01187669 7.54114637 204.17188537 11.10546875 208.1953125 C15.46713044 212.16771834 20.00115711 213.45450799 25.8125 213.75 C32.34566229 213.31366967 36.36189215 211.03387978 41.18359375 206.69921875 C45.01654542 202.11254517 45.31195112 197.31048339 45.1875 191.5390625 C44.49393653 186.38068417 42.17929219 182.68391096 38.16796875 179.40625 C30.13682018 174.33012901 20.34063647 174.54937765 12.9375 180.5 Z "
     fill="#068EFE"
     transform="translate(164.1875,13.25)"
     id="path1" />
  <path
     d="m 341.00586,172.40743 c 2.87964,0.029 13.55998,-0.0377 19.98828,2.1e-4 2.14914,0.015 4.29824,0.0354 6.44727,0.0615 18.08054,0.21424 35.99356,-0.38575 50.03906,-13.54273 9.8872,-10.95471 13.99978,-24.61328 13.39453,-39.18359 -1.03747,-11.75794 -5.21771,-22.360227 -13.875,-30.625 -16.65998,-13.087379 -35.82337,-13.337447 -56,-13.0625 -1.95051,0.01509 -3.90103,0.02877 -5.85156,0.04102 C 350.432,76.128959 341,76.24283 341,76.24283 c -0.29678,9.250213 -0.0815,95.37789 -0.0815,95.37789 z M 362,154.24283 v -59 c 10.38191,-2.595477 23.26927,-1.703858 32.875,3.1875 6.06592,3.75824 10.38168,8.68348 12.58984,15.51953 2.36863,10.14879 1.73592,18.44331 -3.27734,27.60547 -6.83439,8.39654 -14.6254,11.17863 -25.1875,12.6875 z"
     fill="#000116"
     id="path2"
     sodipodi:nodetypes="cccccccccccccccccc" />
  <path
     d="M 0,0 C -0.50115648,4.5104083 -1.1215875,8.9724672 -1.9375,13.4375 L -2.4023438,15.996094 -3,18 -5,19 v -2 c -14.955888,-4.508908 -30.633509,-7.1832456 -45.203125,0.101562 -7.138243,4.097881 -11.243071,9.395255 -14.066406,17.058594 C -66.604649,43.238397 -65.498428,51.834537 -61,60 c 3.721965,5.801887 7.191815,9.102763 13.513986,11.524476 l 10.77972,1.737762 C -24.670791,73.605383 -19.626105,73.584875 -8.2929688,68.875 -5.6922146,67.882549 -4.5673926,68.049114 -2,69 c 0.6645589,3.904284 1.15486612,7.794065 1.375,11.75 l 0.1484375,2.234375 C -1,85 -1,85 -3.1953125,86.660156 -18.833565,94.130798 -40.407125,93.05856 -56.6875,88.191406 -69.188348,83.695229 -78.106721,77.126064 -84.558594,65.285156 -90.79125,51.080106 -89.914074,37.339305 -85,23 -78.913707,9.0884723 -67.61895,1.4901508 -54,-4 c 3.010487,-1.0049395 5.852918,-1.6366383 9,-2 l 2.152344,-0.3242187 C -28.83176,-8.2209217 -12.321647,-7.6027182 0,0 Z"
     fill="#000115"
     transform="translate(688,84)"
     id="path3"
     sodipodi:nodetypes="ccccccccccccccccccccccc" />
  <path
     d="M0 0 C7.80421553 8.05381731 9.78959468 17.02886529 10 28 C9.63043478 34.36956522 9.63043478 34.36956522 8 36 C4.09781793 36.39830745 0.16871416 36.47791763 -3.75 36.625 C-5.49385986 36.69255493 -5.49385986 36.69255493 -7.27294922 36.76147461 C-17.89495518 37.11003409 -28.40345759 36.73118392 -39 36 C-37.51622085 40.9369379 -36.42720506 43.18268769 -32 46 C-21.90304815 50.04748501 -10.97742646 48.66789201 -1 45 C0.32905754 44.65000722 1.66133851 44.31124635 3 44 C3.69821417 46.10063576 4.38324472 48.20565737 5.0625 50.3125 C5.44535156 51.48425781 5.82820313 52.65601563 6.22265625 53.86328125 C7 57 7 57 6 60 C3.671875 61.1328125 3.671875 61.1328125 0.75 62.125 C-0.20390625 62.45757812 -1.1578125 62.79015625 -2.140625 63.1328125 C-15.04559638 67.0466153 -31.75823062 66.94600227 -44 61 C-52.22575294 56.02514343 -57.71602928 49.68186572 -60.4296875 40.43359375 C-62.83282689 30.1791017 -62.33019726 20.00168803 -57.7421875 10.35546875 C-51.77119952 0.77904814 -43.77575032 -4.7523502 -32.92578125 -7.53125 C-21.80715758 -9.39494311 -8.64162754 -7.4400298 0 0 Z M-36.875 13.875 C-39.35434938 17.08514116 -39.35434938 17.08514116 -40 22 C-30.1 22 -20.2 22 -10 22 C-11.02746384 15.83521694 -11.6972603 14.20712326 -16 10 C-23.59172156 6.52046095 -31.11900767 7.4203034 -36.875 13.875 Z "
     fill="#000115"
     transform="translate(500,110)"
     id="path4" />
  <path
     d="M0 0 C8.96178965 7.55162569 13.37899233 15.59271053 14.5625 27.1953125 C15.03844931 38.20164026 11.62253398 47.83279934 4.34375 56.05078125 C-3.43067081 63.82520206 -13.48819318 66.415761 -24.21875 66.55078125 C-34.74732252 66.44115721 -43.85123763 63.48091023 -51.65234375 56.18359375 C-59.38797716 48.20666535 -61.99677597 40.30005998 -62.09375 29.36328125 C-61.92562391 18.47060491 -58.49201482 9.7326841 -50.58203125 2.03125 C-36.87525292 -9.33126257 -14.51518985 -10.65158784 0 0 Z M-35.40625 14.23828125 C-40.70337 20.85968125 -41.51704025 26.74176426 -40.65625 35.05078125 C-39.38718007 41.30095067 -36.82146156 44.42414334 -31.65625 48.05078125 C-27.27803718 50.23988766 -21.12101634 49.79740755 -16.515625 48.40234375 C-12.004385 46.10749558 -9.30200872 42.7465602 -7.65625 38.05078125 C-5.9175198 30.21371059 -6.6355844 23.87561257 -10.40625 16.73828125 C-13.79317127 12.69279196 -17.0275958 11.43573588 -22.09375 10.23828125 C-27.51792515 9.95279835 -31.13134547 10.83778901 -35.40625 14.23828125 Z "
     fill="#000115"
     transform="translate(753.65625,108.94921875)"
     id="path5" />
  <path
     d="M0 0 C0 0.66 0 1.32 0 2 C1.0209375 2.2784375 1.0209375 2.2784375 2.0625 2.5625 C8.72424412 5.82250244 12.4800963 11.06075369 15.2734375 17.7890625 C16.96645211 22.94092417 17.15408725 27.85916317 17.125 33.25 C17.12886719 33.9821875 17.13273438 34.714375 17.13671875 35.46875 C17.12671034 40.87328966 17.12671034 40.87328966 16 42 C14.55710213 42.09295815 13.10970215 42.11746513 11.66381836 42.11352539 C10.28249977 42.11341209 10.28249977 42.11341209 8.87327576 42.11329651 C7.87224319 42.10813522 6.87121063 42.10297394 5.83984375 42.09765625 C4.82024063 42.0962413 3.80063751 42.09482635 2.75013733 42.09336853 C-0.52077107 42.08775097 -3.79161213 42.0751955 -7.0625 42.0625 C-9.27408756 42.05748726 -11.48567618 42.05292396 -13.69726562 42.04882812 C-19.13153357 42.03777584 -24.56576197 42.02102063 -30 42 C-28.51622085 46.9369379 -27.42720506 49.18268769 -23 52 C-13.76752402 55.70094942 -3.19330735 55.0506027 6.046875 51.65625 C8 51 8 51 11 51 C14.25968109 60.41002278 14.25968109 60.41002278 15 65 C2.88024777 72.73601206 -12.9518262 72.81011114 -26.81640625 70.3125 C-37.16729262 67.13981452 -43.82860372 61.43779822 -49 52 C-53.82798336 42.49490777 -53.61274356 32.62532488 -51.1328125 22.4375 C-48.02826799 13.0168132 -42.85008676 6.47854132 -34 2 C-22.93420075 -3.19415067 -11.77018533 -2.08854416 0 0 Z M-28.4375 19.3125 C-30.42437542 22.36536362 -30.42437542 22.36536362 -31 28 C-21.76 28 -12.52 28 -3 28 C-2.67 27.34 -2.34 26.68 -2 26 C-3.69035817 20.92892548 -5.21627923 17.76392756 -10 15 C-17.19537291 13.23064601 -22.95111861 14.10747151 -28.4375 19.3125 Z "
     fill="#000115"
     transform="translate(982,104)"
     id="path6" />
  <path
     d="M0 0 C1.18613892 0.00785522 1.18613892 0.00785522 2.39624023 0.01586914 C3.67724609 0.02070312 3.67724609 0.02070312 4.98413086 0.02563477 C5.88196289 0.03401367 6.77979492 0.04239258 7.70483398 0.05102539 C8.6065332 0.05553711 9.50823242 0.06004883 10.43725586 0.06469727 C12.67234712 0.07652315 14.90730835 0.09300319 17.14233398 0.11352539 C17.47233398 2.75352539 17.80233398 5.39352539 18.14233398 8.11352539 C18.47233398 7.78352539 18.80233398 7.45352539 19.14233398 7.11352539 C20.19156836 6.28396543 21.25666827 5.47438487 22.32983398 4.67602539 C22.90088867 4.24418945 23.47194336 3.81235352 24.06030273 3.36743164 C31.91649592 -1.36397176 43.03703368 -1.29470446 51.81811523 0.73071289 C57.72765458 3.3240253 61.63907657 8.44719253 64.04949951 14.32603455 C66.10431772 20.83732126 66.55483379 26.75405411 66.47045898 33.55493164 C66.46858582 34.60382065 66.46671265 35.65270966 66.46478271 36.73338318 C66.45810759 38.92922184 66.44428489 41.12504955 66.42358398 43.32080078 C66.39213133 46.69778366 66.38257755 50.07430045 66.37670898 53.45141602 C66.36754981 55.59009365 66.35717753 57.7287665 66.34545898 59.86743164 C66.34120911 60.88084122 66.33695923 61.89425079 66.33258057 62.93836975 C66.32297302 63.8670134 66.31336548 64.79565704 66.3034668 65.75244141 C66.29663879 66.57277359 66.28981079 67.39310577 66.28277588 68.23829651 C66.14233398 70.11352539 66.14233398 70.11352539 65.14233398 71.11352539 C63.73884663 71.2121267 62.33052921 71.24431476 60.92358398 71.24633789 C59.6493457 71.24827148 59.6493457 71.24827148 58.34936523 71.25024414 C57.45604492 71.24637695 56.56272461 71.24250977 55.64233398 71.23852539 C54.74901367 71.24239258 53.85569336 71.24625977 52.93530273 71.25024414 C52.08581055 71.24895508 51.23631836 71.24766602 50.36108398 71.24633789 C49.57668945 71.24520996 48.79229492 71.24408203 47.98413086 71.24291992 C46.14233398 71.11352539 46.14233398 71.11352539 45.14233398 70.11352539 C45.03581059 68.72827374 44.99615753 67.33777976 44.98461914 65.94848633 C44.97435699 65.06376648 44.96409485 64.17904663 44.95352173 63.26751709 C44.9462204 62.30404358 44.93891907 61.34057007 44.93139648 60.34790039 C44.90332039 58.32315283 44.87465588 56.29841335 44.84545898 54.27368164 C44.80422555 51.06974577 44.76735403 47.86595969 44.7409668 44.66186523 C44.7133405 41.57772251 44.66745773 38.49427506 44.61889648 35.41040039 C44.61564362 34.4550238 44.61239075 33.49964722 44.60903931 32.51531982 C44.51828308 27.59947703 44.40653949 24.06875216 41.14233398 20.11352539 C37.27625658 17.61194589 33.67639534 18.00030868 29.29077148 18.64868164 C26.2924071 19.29741866 24.45595162 20.07209807 22.14233398 22.11352539 C19.14946475 27.74464122 18.68971419 32.41865881 18.66577148 38.73071289 C18.65019196 39.62847443 18.63461243 40.52623596 18.61856079 41.45120239 C18.57131054 44.29696895 18.54334715 47.14249237 18.51733398 49.98852539 C18.48085694 52.85581298 18.44032734 55.72296215 18.39468384 58.59011841 C18.36742223 60.36955629 18.34608618 62.14909643 18.33114624 63.92868042 C18.25305174 70.00280763 18.25305174 70.00280763 17.14233398 71.11352539 C10.64866986 72.27310827 4.639406 72.05664875 -1.85766602 71.11352539 C-2.9814635 67.74213293 -2.9846656 65.1922623 -2.98706055 61.63842773 C-2.98881287 60.98610672 -2.99056519 60.33378571 -2.99237061 59.66169739 C-2.99676871 57.50759209 -2.99385901 55.353569 -2.99047852 53.19946289 C-2.99115198 51.7039895 -2.99212236 50.20851622 -2.99337769 48.71304321 C-2.99485175 45.58090166 -2.99270883 42.44878863 -2.98803711 39.31665039 C-2.98233013 35.29353258 -2.98562677 31.27048134 -2.99160957 27.24736595 C-2.99521463 24.16083266 -2.99407703 21.07431528 -2.99148178 17.98778152 C-2.99081287 16.50374977 -2.9916397 15.01971658 -2.99396133 13.53568649 C-2.99648803 11.46702973 -2.99264754 9.39848254 -2.98706055 7.32983398 C-2.98626495 6.15085541 -2.98546936 4.97187683 -2.98464966 3.75717163 C-2.81243514 0.17187309 -2.81243514 0.17187309 0 0 Z "
     fill="#000216"
     transform="translate(856.857666015625,102.886474609375)"
     id="path7" />
  <path
     d="M 0,0 2.5488281,0.01171875 5.0859375,0 7.5136719,0.00390625 9.7478027,0.00732422 C 11.611328,0.13671875 11.611328,0.13671875 13.611328,1.1367187 v 5 c 3.226211,-0.6307424 5.412246,-1.8384041 8.1875,-3.5624999 7.706138,-3.9389472 17.156902,-3.7745799 25.472656,-1.8085938 5.99894,2.5775792 9.651097,7.9466904 12.464844,13.652344 1.102898,3.42686 1.347809,6.712514 1.5,10.28125 l 0.11499,2.354736 c 0.612676,15.008459 0.339365,30.065236 0.26001,45.082764 -3.312865,-0.138203 -6.62518,-0.286838 -9.9375,-0.4375 l -2.865234,-0.119141 -2.72461,-0.126953 -2.523193,-0.111084 C 41.611328,71.136719 41.611328,71.136719 40.611328,70.136719 40.49975,68.78763 40.454655,67.432935 40.437744,66.079346 38.35406,51.076028 41.623422,21.781411 37.611328,20.136719 c -5.185574,-2.434045 -10.534046,-2.589536 -16,-1 -3.783502,2.898001 -5.619341,5.491332 -7,10 -0.50726,11.541403 -0.602239,23.098942 -0.672241,34.650558 -0.102101,6.123784 -0.102101,6.123784 -2.327759,8.349442 -1.8476561,0.166992 -1.8476561,0.166992 -4.0624999,0.04687 L 5.1347656,72.054687 2.6113281,71.886719 0.08789062,71.765625 C -6.1321637,71.393227 -6.1321637,71.393227 -8.3886719,69.136719 -8.5190756,46.561919 -8.4482108,24.790728 -8.1753852,2.1856698 -5.1869227,-0.71538006 -2.5766007,0.00415246 0,0 Z"
     fill="#000216"
     transform="translate(782.38867,102.86328)"
     id="path8"
     sodipodi:nodetypes="ccccccccccccccccccccccccccccccc" />
  <path
     d="M0 0 C7.59 0 15.18 0 23 0 C25.55723178 5.75377151 28.012179 11.44094413 30.234375 17.31640625 C30.51726379 18.05833725 30.80015259 18.80026825 31.09161377 19.56468201 C31.98006992 21.89641009 32.86509745 24.22942132 33.75 26.5625 C34.35784483 28.15959203 34.96591587 29.756598 35.57421875 31.35351562 C37.05209009 35.23468923 38.52689164 39.11701623 40 43 C40.99 43 41.98 43 43 43 C48.11137449 30.32015111 53.21857661 17.6469831 57.94140625 4.81640625 C59 2 59 2 60 0 C67.26 0 74.52 0 82 0 C83.36486197 4.09458592 81.77774852 6.39814168 80.0546875 10.11328125 C79.57222565 11.18477165 79.57222565 11.18477165 79.08001709 12.27790833 C78.0204004 14.62682859 76.9477097 16.96953397 75.875 19.3125 C74.77134482 21.74940759 73.67109332 24.18783095 72.57125854 26.62646484 C71.8222458 28.28709431 71.07217447 29.9472467 70.32107544 31.60693359 C67.86411758 37.04517941 65.4621641 42.50419926 63.109375 47.98828125 C62.66085678 49.03291283 62.66085678 49.03291283 62.20327759 50.09864807 C61.06322427 52.75776714 59.9251907 55.41769455 58.79486084 58.08096313 C58.02604741 59.89159637 57.2514547 61.69977243 56.4765625 63.5078125 C56.04424316 64.52504395 55.61192383 65.54227539 55.16650391 66.59033203 C54 69 54 69 52 71 C49.75341797 71.22705078 49.75341797 71.22705078 46.9921875 71.1953125 C45.51298828 71.18564453 45.51298828 71.18564453 44.00390625 71.17578125 C42.45509766 71.15064453 42.45509766 71.15064453 40.875 71.125 C39.31458984 71.11146484 39.31458984 71.11146484 37.72265625 71.09765625 C35.14820908 71.07403747 32.57421788 71.04110149 30 71 C26.59193985 64.34396603 23.44690721 57.62158439 20.5 50.75 C19.63545345 48.74737995 18.77086797 46.74477671 17.90625 44.7421875 C17.44476562 43.6706543 16.98328125 42.59912109 16.5078125 41.49511719 C14.8548134 37.66345672 13.19393076 33.83527858 11.53125 30.0078125 C10.64538009 27.96767149 9.75957469 25.92750247 8.8737793 23.8873291 C8.29463031 22.55353878 7.71536733 21.21979795 7.13598633 19.8861084 C6.31910595 18.00511211 5.50318416 16.12370278 4.6875 14.2421875 C4.21699219 13.1579248 3.74648438 12.07366211 3.26171875 10.95654297 C2.84535156 9.98088379 2.42898438 9.00522461 2 8 C1.61457031 7.10812988 1.22914063 6.21625977 0.83203125 5.29736328 C0 3 0 3 0 0 Z M41 46 C42 48 42 48 42 48 Z "
     fill="#000115"
     transform="translate(511,103)"
     id="path9" />
  <path
     d="M0 0 C3.02093215 3.02093215 2.46676834 6.56372072 2.625 10.625 C2.66367188 11.42679688 2.70234375 12.22859375 2.7421875 13.0546875 C2.83653931 15.03607556 2.91936215 17.01800645 3 19 C8.28 18.67 13.56 18.34 19 18 C20.44115724 20.88231448 20.42914604 23.60823981 20.6875 26.8125 C20.79449219 28.03582031 20.90148438 29.25914063 21.01171875 30.51953125 C21.00018964 33.94367634 20.50823998 35.96618395 19 39 C17.35 39 15.7 39 14 39 C14 38.67 14 38.34 14 38 C12.37509046 37.97301811 10.75005367 37.95361243 9.125 37.9375 C8.22007813 37.92589844 7.31515625 37.91429687 6.3828125 37.90234375 C3.9831415 37.83750743 3.9831415 37.83750743 2 39 C2.11026156 43.37550142 2.24080284 47.75017242 2.375 52.125 C2.4059375 53.3625 2.436875 54.6 2.46875 55.875 C2.50742188 57.07382813 2.54609375 58.27265625 2.5859375 59.5078125 C2.63306885 61.15740967 2.63306885 61.15740967 2.68115234 62.84033203 C3.01965535 66.19477756 3.64894459 68.91000736 5 72 C10.34425837 73.78141946 15.54780241 73.06384343 21 72 C22.19088986 77.38027025 23.2919519 82.45291384 23 88 C13.85180512 91.99193959 1.87780657 92.9558981 -7.75 89.875 C-13.06187838 86.81045478 -16.17472015 82.92531851 -18 77 C-18.26214492 74.06314155 -18.23307697 71.14571332 -18.1953125 68.19921875 C-18.1924826 67.36284378 -18.18965271 66.52646881 -18.18673706 65.66474915 C-18.1755832 63.00551774 -18.15048763 60.34662882 -18.125 57.6875 C-18.11496399 55.87956217 -18.10583923 54.07161904 -18.09765625 52.26367188 C-18.07565959 47.84231688 -18.04116294 43.42121642 -18 39 C-20.97 38.34 -23.94 37.68 -27 37 C-27.19620767 34.93831015 -27.38160753 32.87559002 -27.5625 30.8125 C-27.66691406 29.66394531 -27.77132813 28.51539062 -27.87890625 27.33203125 C-27.98859985 24.31368801 -27.74002389 21.91076064 -27 19 C-24.36 19 -21.72 19 -19 19 C-19.02320313 18.18015625 -19.04640625 17.3603125 -19.0703125 16.515625 C-19.09738281 14.89914063 -19.09738281 14.89914063 -19.125 13.25 C-19.14820313 12.18265625 -19.17140625 11.1153125 -19.1953125 10.015625 C-19 7 -19 7 -17 3 C-8.585 2.505 -8.585 2.505 0 2 C0 1.34 0 0.68 0 0 Z "
     fill="#000115"
     transform="translate(1097,84)"
     id="path10" />
  <path
     d="M0 0 C-0.14213297 1.89611434 -0.28886907 3.79188394 -0.4375 5.6875 C-0.51871094 6.74324219 -0.59992188 7.79898438 -0.68359375 8.88671875 C-0.96451681 11.65086297 -1.40156852 14.28945741 -2 17 C-2.58265625 16.7834375 -3.1653125 16.566875 -3.765625 16.34375 C-11.87418849 13.58989825 -20.20262215 12.4885388 -28.5 15.1875 C-33.18985718 17.61617604 -35.33783724 20.01351171 -37 25 C-37.605155 33.61182122 -37.77940195 40.4891009 -32.0625 47.3125 C-23.54146623 52.0077635 -14.15840271 51.39261609 -5 49 C-3.32123342 48.36441759 -1.65007068 47.70674534 0 47 C1.2982126 52.76081841 2.25706972 58.08739655 2 64 C-11.02000161 69.23605092 -26.15578804 70.61933606 -39.421875 65.3203125 C-48.62287814 60.60828362 -54.78896657 54.1640932 -58.2890625 44.40625 C-62.07636257 32.14091447 -61.00929066 23.44106508 -55 12 C-50.0168718 4.43020983 -42.8986963 -0.16298889 -34.5 -3.3125 C-22.87724863 -5.59554045 -10.6285547 -5.93373299 0 0 Z "
     fill="#000115"
     transform="translate(1064,107)"
     id="path11" />
  <path
     d="M0 0 C2.90906706 2.34341513 4.00861484 4.29524205 5.25 7.8125 C5.07088923 12.20071398 3.95981647 15.35514795 1.25 18.8125 C-2.77057104 21.61754956 -5.9053515 22.29843804 -10.78515625 21.46484375 C-14.21502537 20.32609993 -16.20708567 18.35541433 -18.75 15.8125 C-20.38325359 12.54599282 -20.42675737 9.32910841 -19.75 5.8125 C-17.77106516 2.43477409 -15.52959385 -0.55467783 -11.76171875 -1.89453125 C-7.57541073 -2.50418776 -3.84243159 -1.65923182 0 0 Z "
     fill="#078EFE"
     transform="translate(145.75,225.1875)"
     id="path12" />
  <path
     d="M0 0 C0.66 0.33 1.32 0.66 2 1 C-0.31 3.64 -2.62 6.28 -5 9 C-5 4.61031544 -2.87194899 3.23094261 0 0 Z "
     fill="#128DF7"
     transform="translate(13,114)"
     id="path15" />
  <path
     d="M0 0 C4 1 4 1 4 1 Z "
     fill="#040C28"
     transform="translate(1106,122)"
     id="path19" />
  <path
     d="M0 0 C3 1 3 1 3 1 Z "
     fill="#2592ED"
     transform="translate(71,247)"
     id="path20" />
  <path
     d=""
     fill="#010923"
     transform="translate(0,0)"
     id="path21" />
  <path
     d=""
     fill="#2A97EF"
     transform="translate(0,0)"
     id="path22" />
  <path
     d="M0 0 C3 1 3 1 3 1 Z "
     fill="#030C27"
     transform="translate(726,121)"
     id="path23" />
  <path
     d=""
     fill="#2797F0"
     transform="translate(0,0)"
     id="path24" />
  <path
     d="M0 0 C2 1 2 1 2 1 Z "
     fill="#1593F8"
     transform="translate(234,178)"
     id="path25" />
  <path
     d="M0 0 C2 1 2 1 2 1 Z "
     fill="#1995FA"
     transform="translate(42,178)"
     id="path26" />
  <path
     d="M0 0 C2 1 2 1 2 1 Z "
     fill="#1896F8"
     transform="translate(38,178)"
     id="path27" />
  <path
     d="M0 0 C2 1 2 1 2 1 Z "
     fill="#070E27"
     transform="translate(967,176)"
     id="path28" />
  <path
     d="M0 0 C2 1 2 1 2 1 Z "
     fill="#091025"
     transform="translate(936,174)"
     id="path29" />
  <path
     d=""
     fill="#1593FC"
     transform="translate(0,0)"
     id="path30" />
  <path
     d=""
     fill="#030A23"
     transform="translate(0,0)"
     id="path31" />
  <path
     d="M0 0 C2 1 2 1 2 1 Z "
     fill="#040E25"
     transform="translate(1050,156)"
     id="path32" />
  <path
     d="M0 0 C2 1 2 1 2 1 Z "
     fill="#030D28"
     transform="translate(665,155)"
     id="path33" />
  <path
     d=""
     fill="#040A25"
     transform="translate(0,0)"
     id="path34" />
  <path
     d=""
     fill="#2997EF"
     transform="translate(0,0)"
     id="path35" />
  <path
     d=""
     fill="#030A25"
     transform="translate(0,0)"
     id="path36" />
  <path
     d=""
     fill="#1397FE"
     transform="translate(0,0)"
     id="path37" />
  <path
     d="M0 0 C2 1 2 1 2 1 Z "
     fill="#040C27"
     transform="translate(1103,122)"
     id="path38" />
  <path
     d="M0 0 C2 1 2 1 2 1 Z "
     fill="#050D2A"
     transform="translate(1036,122)"
     id="path39" />
  <path
     d="M0 0 C2 1 2 1 2 1 Z "
     fill="#020D2A"
     transform="translate(804,122)"
     id="path40" />
  <path
     d="M0 0 C2 1 2 1 2 1 Z "
     fill="#040C28"
     transform="translate(1046,121)"
     id="path41" />
  <path
     d="M0 0 C2 1 2 1 2 1 Z "
     fill="#030C26"
     transform="translate(890,121)"
     id="path42" />
  <path
     d=""
     fill="#040E25"
     transform="translate(0,0)"
     id="path43" />
  <path
     d=""
     fill="#050F28"
     transform="translate(0,0)"
     id="path44" />
  <path
     d="M0 0 C2 1 2 1 2 1 Z "
     fill="#081129"
     transform="translate(1112,101)"
     id="path45" />
  <path
     d="M0 0 C2 1 2 1 2 1 Z "
     fill="#061028"
     transform="translate(1036,101)"
     id="path46" />
  <path
     d="M0 0 C2 1 2 1 2 1 Z "
     fill="#050E28"
     transform="translate(903,101)"
     id="path47" />
  <path
     d=""
     fill="#050D26"
     transform="translate(0,0)"
     id="path48" />
  <path
     d=""
     fill="#061030"
     transform="translate(0,0)"
     id="path49" />
  <path
     d=""
     fill="#1496FF"
     transform="translate(0,0)"
     id="path50" />
  <path
     d="M0 0 C2 1 2 1 2 1 Z "
     fill="#0A1A3A"
     transform="translate(391,77)"
     id="path51" />
  <path
     d="M0 0 C2 1 2 1 2 1 Z "
     fill="#122E56"
     transform="translate(344,76)"
     id="path52" />
  <path
     d="M0 0 C2 1 2 1 2 1 Z "
     fill="#1399FF"
     transform="translate(202,58)"
     id="path53" />
  <path
     d="M0 0 C2 1 2 1 2 1 Z "
     fill="#2995EF"
     transform="translate(43,36)"
     id="path54" />
  <path
     d="M0 0 C2 1 2 1 2 1 Z "
     fill="#1D202A"
     transform="translate(936,30)"
     id="path55" />
  <path
     d="M0 0 C2 1 2 1 2 1 Z "
     fill="#2493F0"
     transform="translate(118,4)"
     id="path56" />
  <path
     d=""
     fill="#202530"
     transform="translate(0,0)"
     id="path57" />
  <path
     d=""
     fill="#1D232E"
     transform="translate(0,0)"
     id="path58" />
  <path
     d=""
     fill="#232831"
     transform="translate(0,0)"
     id="path59" />
  <path
     d=""
     fill="#2791EA"
     transform="translate(0,0)"
     id="path60" />
  <path
     d=""
     fill="#1B212C"
     transform="translate(0,0)"
     id="path61" />
  <path
     d=""
     fill="#365071"
     transform="translate(0,0)"
     id="path62" />
  <path
     d=""
     fill="#208FED"
     transform="translate(0,0)"
     id="path63" />
  <path
     d=""
     fill="#2291EE"
     transform="translate(0,0)"
     id="path64" />
  <path
     d=""
     fill="#2493EE"
     transform="translate(0,0)"
     id="path65" />
  <path
     d=""
     fill="#2492EE"
     transform="translate(0,0)"
     id="path66" />
  <path
     d=""
     fill="#2191F2"
     transform="translate(0,0)"
     id="path67" />
  <path
     d=""
     fill="#2193F1"
     transform="translate(0,0)"
     id="path68" />
  <path
     d=""
     fill="#2593EF"
     transform="translate(0,0)"
     id="path69" />
  <path
     d=""
     fill="#1B202C"
     transform="translate(0,0)"
     id="path70" />
  <path
     d=""
     fill="#278FE9"
     transform="translate(0,0)"
     id="path71" />
  <path
     d=""
     fill="#1F91F2"
     transform="translate(0,0)"
     id="path72" />
  <path
     d=""
     fill="#19212A"
     transform="translate(0,0)"
     id="path73" />
  <path
     d=""
     fill="#325071"
     transform="translate(0,0)"
     id="path74" />
  <path
     d=""
     fill="#2692EF"
     transform="translate(0,0)"
     id="path75" />
  <path
     d=""
     fill="#248EE8"
     transform="translate(0,0)"
     id="path76" />
  <path
     d=""
     fill="#1E2538"
     transform="translate(0,0)"
     id="path77" />
  <path
     d=""
     fill="#2492EF"
     transform="translate(0,0)"
     id="path78" />
  <path
     d=""
     fill="#171F29"
     transform="translate(0,0)"
     id="path79" />
  <path
     d=""
     fill="#324E73"
     transform="translate(0,0)"
     id="path80" />
  <path
     d=""
     fill="#2694EE"
     transform="translate(0,0)"
     id="path81" />
  <path
     d=""
     fill="#2494F1"
     transform="translate(0,0)"
     id="path82" />
  <path
     d=""
     fill="#131D2A"
     transform="translate(0,0)"
     id="path83" />
  <path
     d=""
     fill="#304E74"
     transform="translate(0,0)"
     id="path84" />
  <path
     d=""
     fill="#1596FD"
     transform="translate(0,0)"
     id="path85" />
  <path
     d=""
     fill="#1598FF"
     transform="translate(0,0)"
     id="path86" />
  <path
     d=""
     fill="#1898FF"
     transform="translate(0,0)"
     id="path87" />
  <path
     d=""
     fill="#131D29"
     transform="translate(0,0)"
     id="path88" />
  <path
     d=""
     fill="#2D4C72"
     transform="translate(0,0)"
     id="path89" />
  <path
     d=""
     fill="#1998FE"
     transform="translate(0,0)"
     id="path90" />
  <path
     d=""
     fill="#19202D"
     transform="translate(0,0)"
     id="path91" />
  <path
     d=""
     fill="#2296F1"
     transform="translate(0,0)"
     id="path92" />
  <path
     d=""
     fill="#121A29"
     transform="translate(0,0)"
     id="path93" />
  <path
     d=""
     fill="#1496FF"
     transform="translate(0,0)"
     id="path94" />
  <path
     d=""
     fill="#121828"
     transform="translate(0,0)"
     id="path95" />
  <path
     d=""
     fill="#2398F4"
     transform="translate(0,0)"
     id="path96" />
  <path
     d=""
     fill="#121829"
     transform="translate(0,0)"
     id="path97" />
  <path
     d=""
     fill="#101929"
     transform="translate(0,0)"
     id="path98" />
  <path
     d=""
     fill="#1897FE"
     transform="translate(0,0)"
     id="path99" />
  <path
     d=""
     fill="#111627"
     transform="translate(0,0)"
     id="path100" />
  <path
     d=""
     fill="#1898FE"
     transform="translate(0,0)"
     id="path101" />
  <path
     d=""
     fill="#1498FE"
     transform="translate(0,0)"
     id="path102" />
  <path
     d=""
     fill="#1295FD"
     transform="translate(0,0)"
     id="path103" />
  <path
     d=""
     fill="#1496FF"
     transform="translate(0,0)"
     id="path104" />
  <path
     d=""
     fill="#1395FF"
     transform="translate(0,0)"
     id="path105" />
  <path
     d=""
     fill="#1397FF"
     transform="translate(0,0)"
     id="path106" />
  <path
     d=""
     fill="#1497FC"
     transform="translate(0,0)"
     id="path107" />
  <path
     d=""
     fill="#0D1728"
     transform="translate(0,0)"
     id="path108" />
  <path
     d=""
     fill="#214068"
     transform="translate(0,0)"
     id="path109" />
  <path
     d=""
     fill="#2499F7"
     transform="translate(0,0)"
     id="path110" />
  <path
     d=""
     fill="#101528"
     transform="translate(0,0)"
     id="path111" />
  <path
     d=""
     fill="#1595FE"
     transform="translate(0,0)"
     id="path112" />
  <path
     d=""
     fill="#1397FF"
     transform="translate(0,0)"
     id="path113" />
  <path
     d=""
     fill="#1296FD"
     transform="translate(0,0)"
     id="path114" />
  <path
     d=""
     fill="#0A1426"
     transform="translate(0,0)"
     id="path115" />
  <path
     d=""
     fill="#1C375F"
     transform="translate(0,0)"
     id="path116" />
  <path
     d=""
     fill="#091224"
     transform="translate(0,0)"
     id="path117" />
  <path
     d=""
     fill="#0B1226"
     transform="translate(0,0)"
     id="path118" />
  <path
     d=""
     fill="#1A3459"
     transform="translate(0,0)"
     id="path119" />
  <path
     d=""
     fill="#1395FB"
     transform="translate(0,0)"
     id="path120" />
  <path
     d=""
     fill="#1691F6"
     transform="translate(0,0)"
     id="path121" />
  <path
     d=""
     fill="#1392F8"
     transform="translate(0,0)"
     id="path122" />
  <path
     d=""
     fill="#1495FB"
     transform="translate(0,0)"
     id="path123" />
  <path
     d=""
     fill="#1594FD"
     transform="translate(0,0)"
     id="path124" />
  <path
     d=""
     fill="#1B95F7"
     transform="translate(0,0)"
     id="path125" />
  <path
     d=""
     fill="#081025"
     transform="translate(0,0)"
     id="path126" />
  <path
     d=""
     fill="#091126"
     transform="translate(0,0)"
     id="path127" />
  <path
     d=""
     fill="#070F27"
     transform="translate(0,0)"
     id="path128" />
  <path
     d=""
     fill="#1395FB"
     transform="translate(0,0)"
     id="path129" />
  <path
     d=""
     fill="#1596FE"
     transform="translate(0,0)"
     id="path130" />
  <path
     d=""
     fill="#0A1329"
     transform="translate(0,0)"
     id="path131" />
  <path
     d=""
     fill="#0C132A"
     transform="translate(0,0)"
     id="path132" />
  <path
     d=""
     fill="#070F29"
     transform="translate(0,0)"
     id="path133" />
  <path
     d=""
     fill="#091027"
     transform="translate(0,0)"
     id="path134" />
  <path
     d=""
     fill="#070E28"
     transform="translate(0,0)"
     id="path135" />
  <path
     d=""
     fill="#090D28"
     transform="translate(0,0)"
     id="path136" />
  <path
     d=""
     fill="#090E27"
     transform="translate(0,0)"
     id="path137" />
  <path
     d=""
     fill="#080E29"
     transform="translate(0,0)"
     id="path138" />
  <path
     d=""
     fill="#09112A"
     transform="translate(0,0)"
     id="path139" />
  <path
     d=""
     fill="#163058"
     transform="translate(0,0)"
     id="path140" />
  <path
     d=""
     fill="#091026"
     transform="translate(0,0)"
     id="path141" />
  <path
     d=""
     fill="#050E28"
     transform="translate(0,0)"
     id="path142" />
  <path
     d=""
     fill="#070F26"
     transform="translate(0,0)"
     id="path143" />
  <path
     d=""
     fill="#060D25"
     transform="translate(0,0)"
     id="path144" />
  <path
     d=""
     fill="#081126"
     transform="translate(0,0)"
     id="path145" />
  <path
     d=""
     fill="#070E25"
     transform="translate(0,0)"
     id="path146" />
  <path
     d=""
     fill="#2397F3"
     transform="translate(0,0)"
     id="path147" />
  <path
     d=""
     fill="#081228"
     transform="translate(0,0)"
     id="path148" />
  <path
     d=""
     fill="#080F28"
     transform="translate(0,0)"
     id="path149" />
  <path
     d=""
     fill="#061027"
     transform="translate(0,0)"
     id="path150" />
  <path
     d=""
     fill="#07132B"
     transform="translate(0,0)"
     id="path151" />
  <path
     d=""
     fill="#1496F9"
     transform="translate(0,0)"
     id="path152" />
  <path
     d=""
     fill="#050E29"
     transform="translate(0,0)"
     id="path153" />
  <path
     d=""
     fill="#060C25"
     transform="translate(0,0)"
     id="path154" />
  <path
     d=""
     fill="#2B96EF"
     transform="translate(0,0)"
     id="path155" />
  <path
     d=""
     fill="#030C24"
     transform="translate(0,0)"
     id="path156" />
  <path
     d=""
     fill="#143058"
     transform="translate(0,0)"
     id="path157" />
  <path
     d=""
     fill="#040B24"
     transform="translate(0,0)"
     id="path158" />
  <path
     d=""
     fill="#1795FE"
     transform="translate(0,0)"
     id="path159" />
  <path
     d=""
     fill="#060B24"
     transform="translate(0,0)"
     id="path160" />
  <path
     d=""
     fill="#050B25"
     transform="translate(0,0)"
     id="path161" />
  <path
     d=""
     fill="#020B23"
     transform="translate(0,0)"
     id="path162" />
  <path
     d=""
     fill="#040A24"
     transform="translate(0,0)"
     id="path163" />
  <path
     d=""
     fill="#060E25"
     transform="translate(0,0)"
     id="path164" />
  <path
     d=""
     fill="#040B28"
     transform="translate(0,0)"
     id="path165" />
  <path
     d=""
     fill="#050D27"
     transform="translate(0,0)"
     id="path166" />
  <path
     d=""
     fill="#000C24"
     transform="translate(0,0)"
     id="path167" />
  <path
     d=""
     fill="#030B26"
     transform="translate(0,0)"
     id="path168" />
  <path
     d=""
     fill="#040E25"
     transform="translate(0,0)"
     id="path169" />
  <path
     d=""
     fill="#030E28"
     transform="translate(0,0)"
     id="path170" />
  <path
     d=""
     fill="#060E24"
     transform="translate(0,0)"
     id="path171" />
  <path
     d=""
     fill="#060E26"
     transform="translate(0,0)"
     id="path172" />
  <path
     d=""
     fill="#1A8BEC"
     transform="translate(0,0)"
     id="path173" />
  <path
     d=""
     fill="#1395FC"
     transform="translate(0,0)"
     id="path174" />
  <path
     d=""
     fill="#1498FC"
     transform="translate(0,0)"
     id="path175" />
  <path
     d=""
     fill="#050C29"
     transform="translate(0,0)"
     id="path176" />
  <path
     d=""
     fill="#05102B"
     transform="translate(0,0)"
     id="path177" />
  <path
     d=""
     fill="#010D29"
     transform="translate(0,0)"
     id="path178" />
  <path
     d=""
     fill="#040C2A"
     transform="translate(0,0)"
     id="path179" />
  <path
     d=""
     fill="#050C29"
     transform="translate(0,0)"
     id="path180" />
  <path
     d=""
     fill="#1493F6"
     transform="translate(0,0)"
     id="path181" />
  <path
     d=""
     fill="#1795FC"
     transform="translate(0,0)"
     id="path182" />
  <path
     d=""
     fill="#1798FF"
     transform="translate(0,0)"
     id="path183" />
  <path
     d=""
     fill="#1596F5"
     transform="translate(0,0)"
     id="path184" />
  <path
     d=""
     fill="#030B24"
     transform="translate(0,0)"
     id="path185" />
  <path
     d=""
     fill="#050D25"
     transform="translate(0,0)"
     id="path186" />
  <path
     d=""
     fill="#1497FD"
     transform="translate(0,0)"
     id="path187" />
  <path
     d=""
     fill="#2898F1"
     transform="translate(0,0)"
     id="path188" />
  <path
     d=""
     fill="#040926"
     transform="translate(0,0)"
     id="path189" />
  <path
     d=""
     fill="#060D24"
     transform="translate(0,0)"
     id="path190" />
  <path
     d=""
     fill="#07102B"
     transform="translate(0,0)"
     id="path191" />
  <path
     d=""
     fill="#1696FD"
     transform="translate(0,0)"
     id="path192" />
  <path
     d=""
     fill="#010B2A"
     transform="translate(0,0)"
     id="path193" />
  <path
     d=""
     fill="#050B23"
     transform="translate(0,0)"
     id="path194" />
  <path
     d=""
     fill="#010D28"
     transform="translate(0,0)"
     id="path195" />
  <path
     d=""
     fill="#050A22"
     transform="translate(0,0)"
     id="path196" />
  <path
     d=""
     fill="#040A28"
     transform="translate(0,0)"
     id="path197" />
  <path
     d=""
     fill="#030C23"
     transform="translate(0,0)"
     id="path198" />
  <path
     d=""
     fill="#040C26"
     transform="translate(0,0)"
     id="path199" />
  <path
     d=""
     fill="#050F28"
     transform="translate(0,0)"
     id="path200" />
  <path
     d=""
     fill="#020925"
     transform="translate(0,0)"
     id="path201" />
  <path
     d=""
     fill="#040D26"
     transform="translate(0,0)"
     id="path202" />
  <path
     d=""
     fill="#040D26"
     transform="translate(0,0)"
     id="path203" />
  <path
     d=""
     fill="#040D26"
     transform="translate(0,0)"
     id="path204" />
  <path
     d=""
     fill="#040D29"
     transform="translate(0,0)"
     id="path205" />
  <path
     d=""
     fill="#1696FD"
     transform="translate(0,0)"
     id="path206" />
  <path
     d=""
     fill="#020A24"
     transform="translate(0,0)"
     id="path207" />
  <path
     d=""
     fill="#020B26"
     transform="translate(0,0)"
     id="path208" />
  <path
     d=""
     fill="#020B1F"
     transform="translate(0,0)"
     id="path209" />
  <path
     d=""
     fill="#1697FF"
     transform="translate(0,0)"
     id="path210" />
  <path
     d=""
     fill="#000B24"
     transform="translate(0,0)"
     id="path211" />
  <path
     d=""
     fill="#040B24"
     transform="translate(0,0)"
     id="path212" />
  <path
     d=""
     fill="#2A96F2"
     transform="translate(0,0)"
     id="path213" />
  <path
     d=""
     fill="#020A23"
     transform="translate(0,0)"
     id="path214" />
  <path
     d=""
     fill="#05102B"
     transform="translate(0,0)"
     id="path215" />
  <path
     d=""
     fill="#010823"
     transform="translate(0,0)"
     id="path216" />
  <path
     d=""
     fill="#000822"
     transform="translate(0,0)"
     id="path217" />
  <path
     d=""
     fill="#2996F1"
     transform="translate(0,0)"
     id="path218" />
  <path
     d=""
     fill="#040925"
     transform="translate(0,0)"
     id="path219" />
  <path
     d=""
     fill="#020C24"
     transform="translate(0,0)"
     id="path220" />
  <path
     d=""
     fill="#1598FF"
     transform="translate(0,0)"
     id="path221" />
  <path
     d=""
     fill="#1594FD"
     transform="translate(0,0)"
     id="path222" />
  <path
     d=""
     fill="#020C27"
     transform="translate(0,0)"
     id="path223" />
  <path
     d=""
     fill="#040923"
     transform="translate(0,0)"
     id="path224" />
  <path
     d=""
     fill="#061029"
     transform="translate(0,0)"
     id="path225" />
  <path
     d=""
     fill="#020D27"
     transform="translate(0,0)"
     id="path226" />
  <path
     d=""
     fill="#050D25"
     transform="translate(0,0)"
     id="path227" />
  <path
     d=""
     fill="#030C28"
     transform="translate(0,0)"
     id="path228" />
  <path
     d=""
     fill="#1494FC"
     transform="translate(0,0)"
     id="path229" />
  <path
     d=""
     fill="#1798FE"
     transform="translate(0,0)"
     id="path230" />
  <path
     d=""
     fill="#2B98F0"
     transform="translate(0,0)"
     id="path231" />
  <path
     d=""
     fill="#020B25"
     transform="translate(0,0)"
     id="path232" />
  <path
     d=""
     fill="#1699FC"
     transform="translate(0,0)"
     id="path233" />
  <path
     d=""
     fill="#050B24"
     transform="translate(0,0)"
     id="path234" />
  <path
     d=""
     fill="#030C28"
     transform="translate(0,0)"
     id="path235" />
  <path
     d=""
     fill="#06102C"
     transform="translate(0,0)"
     id="path236" />
  <path
     d=""
     fill="#2A98F0"
     transform="translate(0,0)"
     id="path237" />
  <path
     d=""
     fill="#030B28"
     transform="translate(0,0)"
     id="path238" />
  <path
     d=""
     fill="#2B98F1"
     transform="translate(0,0)"
     id="path239" />
  <path
     d=""
     fill="#040C27"
     transform="translate(0,0)"
     id="path240" />
  <path
     d=""
     fill="#040B2A"
     transform="translate(0,0)"
     id="path241" />
  <path
     d=""
     fill="#030B26"
     transform="translate(0,0)"
     id="path242" />
  <path
     d=""
     fill="#030B26"
     transform="translate(0,0)"
     id="path243" />
  <path
     d=""
     fill="#030B29"
     transform="translate(0,0)"
     id="path244" />
  <path
     d=""
     fill="#040B26"
     transform="translate(0,0)"
     id="path245" />
  <path
     d=""
     fill="#050C27"
     transform="translate(0,0)"
     id="path246" />
  <path
     d=""
     fill="#1297FD"
     transform="translate(0,0)"
     id="path247" />
  <path
     d=""
     fill="#102952"
     transform="translate(0,0)"
     id="path248" />
  <path
     d=""
     fill="#1295FD"
     transform="translate(0,0)"
     id="path249" />
  <path
     d=""
     fill="#040A27"
     transform="translate(0,0)"
     id="path250" />
  <path
     d=""
     fill="#1495FB"
     transform="translate(0,0)"
     id="path251" />
  <path
     d=""
     fill="#112B52"
     transform="translate(0,0)"
     id="path252" />
  <path
     d=""
     fill="#1294FF"
     transform="translate(0,0)"
     id="path253" />
  <path
     d=""
     fill="#1498FF"
     transform="translate(0,0)"
     id="path254" />
  <path
     d=""
     fill="#070E26"
     transform="translate(0,0)"
     id="path255" />
  <path
     d=""
     fill="#050C24"
     transform="translate(0,0)"
     id="path256" />
  <path
     d=""
     fill="#060E26"
     transform="translate(0,0)"
     id="path257" />
  <path
     d=""
     fill="#050F25"
     transform="translate(0,0)"
     id="path258" />
  <path
     d=""
     fill="#1494FF"
     transform="translate(0,0)"
     id="path259" />
  <path
     d=""
     fill="#2396F5"
     transform="translate(0,0)"
     id="path260" />
  <path
     d=""
     fill="#070D25"
     transform="translate(0,0)"
     id="path261" />
  <path
     d=""
     fill="#080D25"
     transform="translate(0,0)"
     id="path262" />
  <path
     d=""
     fill="#060C24"
     transform="translate(0,0)"
     id="path263" />
  <path
     d=""
     fill="#060E28"
     transform="translate(0,0)"
     id="path264" />
  <path
     d=""
     fill="#060F27"
     transform="translate(0,0)"
     id="path265" />
  <path
     d=""
     fill="#060F25"
     transform="translate(0,0)"
     id="path266" />
  <path
     d=""
     fill="#06112C"
     transform="translate(0,0)"
     id="path267" />
  <path
     d=""
     fill="#1794FB"
     transform="translate(0,0)"
     id="path268" />
  <path
     d=""
     fill="#030D24"
     transform="translate(0,0)"
     id="path269" />
  <path
     d=""
     fill="#060C27"
     transform="translate(0,0)"
     id="path270" />
  <path
     d=""
     fill="#050C26"
     transform="translate(0,0)"
     id="path271" />
  <path
     d=""
     fill="#050C25"
     transform="translate(0,0)"
     id="path272" />
  <path
     d=""
     fill="#040E26"
     transform="translate(0,0)"
     id="path273" />
  <path
     d=""
     fill="#060D28"
     transform="translate(0,0)"
     id="path274" />
  <path
     d=""
     fill="#020D29"
     transform="translate(0,0)"
     id="path275" />
  <path
     d=""
     fill="#060E28"
     transform="translate(0,0)"
     id="path276" />
  <path
     d=""
     fill="#091129"
     transform="translate(0,0)"
     id="path277" />
  <path
     d=""
     fill="#070E27"
     transform="translate(0,0)"
     id="path278" />
  <path
     d=""
     fill="#050D27"
     transform="translate(0,0)"
     id="path279" />
  <path
     d=""
     fill="#06102B"
     transform="translate(0,0)"
     id="path280" />
  <path
     d=""
     fill="#081029"
     transform="translate(0,0)"
     id="path281" />
  <path
     d=""
     fill="#070E27"
     transform="translate(0,0)"
     id="path282" />
  <path
     d=""
     fill="#060F27"
     transform="translate(0,0)"
     id="path283" />
  <path
     d=""
     fill="#040F2A"
     transform="translate(0,0)"
     id="path284" />
  <path
     d=""
     fill="#050D26"
     transform="translate(0,0)"
     id="path285" />
  <path
     d=""
     fill="#061028"
     transform="translate(0,0)"
     id="path286" />
  <path
     d=""
     fill="#050E27"
     transform="translate(0,0)"
     id="path287" />
  <path
     d=""
     fill="#071029"
     transform="translate(0,0)"
     id="path288" />
  <path
     d=""
     fill="#070F25"
     transform="translate(0,0)"
     id="path289" />
  <path
     d=""
     fill="#080E2A"
     transform="translate(0,0)"
     id="path290" />
  <path
     d=""
     fill="#0A1229"
     transform="translate(0,0)"
     id="path291" />
  <path
     d=""
     fill="#081026"
     transform="translate(0,0)"
     id="path292" />
  <path
     d=""
     fill="#08112D"
     transform="translate(0,0)"
     id="path293" />
  <path
     d=""
     fill="#08122D"
     transform="translate(0,0)"
     id="path294" />
  <path
     d=""
     fill="#122C56"
     transform="translate(0,0)"
     id="path295" />
  <path
     d=""
     fill="#081029"
     transform="translate(0,0)"
     id="path296" />
  <path
     d=""
     fill="#040D28"
     transform="translate(0,0)"
     id="path297" />
  <path
     d=""
     fill="#1792F7"
     transform="translate(0,0)"
     id="path298" />
  <path
     d=""
     fill="#030B26"
     transform="translate(0,0)"
     id="path299" />
  <path
     d=""
     fill="#030C28"
     transform="translate(0,0)"
     id="path300" />
  <path
     d=""
     fill="#132F57"
     transform="translate(0,0)"
     id="path301" />
  <path
     d=""
     fill="#071127"
     transform="translate(0,0)"
     id="path302" />
  <path
     d=""
     fill="#0A1326"
     transform="translate(0,0)"
     id="path303" />
  <path
     d=""
     fill="#152D58"
     transform="translate(0,0)"
     id="path304" />
  <path
     d=""
     fill="#1395FF"
     transform="translate(0,0)"
     id="path305" />
  <path
     d=""
     fill="#1795FF"
     transform="translate(0,0)"
     id="path306" />
  <path
     d=""
     fill="#1695FF"
     transform="translate(0,0)"
     id="path307" />
  <path
     d=""
     fill="#142E59"
     transform="translate(0,0)"
     id="path308" />
  <path
     d=""
     fill="#0B1427"
     transform="translate(0,0)"
     id="path309" />
  <path
     d=""
     fill="#1799FC"
     transform="translate(0,0)"
     id="path310" />
  <path
     d=""
     fill="#0C1629"
     transform="translate(0,0)"
     id="path311" />
  <path
     d=""
     fill="#060F27"
     transform="translate(0,0)"
     id="path312" />
  <path
     d=""
     fill="#070F28"
     transform="translate(0,0)"
     id="path313" />
  <path
     d=""
     fill="#030E27"
     transform="translate(0,0)"
     id="path314" />
  <path
     d=""
     fill="#091536"
     transform="translate(0,0)"
     id="path315" />
  <path
     d=""
     fill="#1698FE"
     transform="translate(0,0)"
     id="path316" />
  <path
     d=""
     fill="#0C1628"
     transform="translate(0,0)"
     id="path317" />
  <path
     d=""
     fill="#10172A"
     transform="translate(0,0)"
     id="path318" />
  <path
     d=""
     fill="#060F28"
     transform="translate(0,0)"
     id="path319" />
  <path
     d=""
     fill="#1396FC"
     transform="translate(0,0)"
     id="path320" />
  <path
     d=""
     fill="#061028"
     transform="translate(0,0)"
     id="path321" />
  <path
     d=""
     fill="#050F29"
     transform="translate(0,0)"
     id="path322" />
  <path
     d=""
     fill="#05102B"
     transform="translate(0,0)"
     id="path323" />
  <path
     d=""
     fill="#1497FE"
     transform="translate(0,0)"
     id="path324" />
  <path
     d=""
     fill="#0F1829"
     transform="translate(0,0)"
     id="path325" />
  <path
     d=""
     fill="#13192A"
     transform="translate(0,0)"
     id="path326" />
  <path
     d=""
     fill="#101B29"
     transform="translate(0,0)"
     id="path327" />
  <path
     d=""
     fill="#2092EF"
     transform="translate(0,0)"
     id="path328" />
  <path
     d=""
     fill="#1496FF"
     transform="translate(0,0)"
     id="path329" />
  <path
     d=""
     fill="#1195FE"
     transform="translate(0,0)"
     id="path330" />
  <path
     d=""
     fill="#0F1A28"
     transform="translate(0,0)"
     id="path331" />
  <path
     d=""
     fill="#21406A"
     transform="translate(0,0)"
     id="path332" />
  <path
     d=""
     fill="#1696FD"
     transform="translate(0,0)"
     id="path333" />
  <path
     d=""
     fill="#1598FD"
     transform="translate(0,0)"
     id="path334" />
  <path
     d=""
     fill="#1595FC"
     transform="translate(0,0)"
     id="path335" />
  <path
     d=""
     fill="#1898FE"
     transform="translate(0,0)"
     id="path336" />
  <path
     d=""
     fill="#1797F9"
     transform="translate(0,0)"
     id="path337" />
  <path
     d=""
     fill="#2B96EE"
     transform="translate(0,0)"
     id="path338" />
  <path
     d=""
     fill="#1498FE"
     transform="translate(0,0)"
     id="path339" />
  <path
     d=""
     fill="#111A29"
     transform="translate(0,0)"
     id="path340" />
  <path
     d=""
     fill="#264671"
     transform="translate(0,0)"
     id="path341" />
  <path
     d=""
     fill="#1899FF"
     transform="translate(0,0)"
     id="path342" />
  <path
     d=""
     fill="#1C222E"
     transform="translate(0,0)"
     id="path343" />
  <path
     d=""
     fill="#131B29"
     transform="translate(0,0)"
     id="path344" />
  <path
     d=""
     fill="#2A4C76"
     transform="translate(0,0)"
     id="path345" />
  <path
     d=""
     fill="#191C2A"
     transform="translate(0,0)"
     id="path346" />
  <path
     d=""
     fill="#3296E9"
     transform="translate(0,0)"
     id="path347" />
  <path
     d=""
     fill="#191F2A"
     transform="translate(0,0)"
     id="path348" />
  <path
     d=""
     fill="#3194EB"
     transform="translate(0,0)"
     id="path349" />
  <path
     d=""
     fill="#258CE8"
     transform="translate(0,0)"
     id="path350" />
  <path
     d=""
     fill="#3295EA"
     transform="translate(0,0)"
     id="path351" />
  <path
     d=""
     fill="#151D29"
     transform="translate(0,0)"
     id="path352" />
  <path
     d=""
     fill="#2D4E77"
     transform="translate(0,0)"
     id="path353" />
  <path
     d=""
     fill="#258DEB"
     transform="translate(0,0)"
     id="path354" />
  <path
     d=""
     fill="#2A96F0"
     transform="translate(0,0)"
     id="path355" />
  <path
     d=""
     fill="#1497FF"
     transform="translate(0,0)"
     id="path356" />
  <path
     d=""
     fill="#2196F0"
     transform="translate(0,0)"
     id="path357" />
  <path
     d=""
     fill="#1998FC"
     transform="translate(0,0)"
     id="path358" />
  <path
     d=""
     fill="#191F28"
     transform="translate(0,0)"
     id="path359" />
  <path
     d=""
     fill="#305078"
     transform="translate(0,0)"
     id="path360" />
  <path
     d=""
     fill="#19212C"
     transform="translate(0,0)"
     id="path361" />
  <path
     d=""
     fill="#1F242B"
     transform="translate(0,0)"
     id="path362" />
  <path
     d=""
     fill="#19202A"
     transform="translate(0,0)"
     id="path363" />
  <path
     d=""
     fill="#355177"
     transform="translate(0,0)"
     id="path364" />
  <path
     d=""
     fill="#2395F6"
     transform="translate(0,0)"
     id="path365" />
  <path
     d=""
     fill="#1C2129"
     transform="translate(0,0)"
     id="path366" />
  <path
     d=""
     fill="#25282E"
     transform="translate(0,0)"
     id="path367" />
  <path
     d=""
     fill="#1B222A"
     transform="translate(0,0)"
     id="path368" />
  <path
     d=""
     fill="#375376"
     transform="translate(0,0)"
     id="path369" />
  <path
     d=""
     fill="#375576"
     transform="translate(0,0)"
     id="path370" />
  <path
     d=""
     fill="#22262C"
     transform="translate(0,0)"
     id="path371" />
  <path
     d=""
     fill="#1C222A"
     transform="translate(0,0)"
     id="path372" />
  <path
     d=""
     fill="#3B5474"
     transform="translate(0,0)"
     id="path373" />
  <path
     d=""
     fill="#22262D"
     transform="translate(0,0)"
     id="path374" />
  <path
     d=""
     fill="#20232B"
     transform="translate(0,0)"
     id="path375" />
  <path
     d=""
     fill="#2694EF"
     transform="translate(0,0)"
     id="path376" />
  <path
     d=""
     fill="#1E242A"
     transform="translate(0,0)"
     id="path377" />
  <path
     d=""
     fill="#3D5572"
     transform="translate(0,0)"
     id="path378" />
</svg>
